<svg id="Vektorebene" xmlns="http://www.w3.org/2000/svg" viewBox="0 0 383.4 376.72"><defs><style>.cls-1{fill:#ffce12;}</style></defs><path class="cls-1" d="M240.12,373.05c33.61-6.79,69.84-26.67,83.79-58.88l-.41.67a28.57,28.57,0,0,0,2.77-6.25l-.18.4c3.74-10.58,8.17-21.64,7.54-33.06.3-26.74-19.58-53-39.85-67.71-34.6-32-104.22-39-140.37-25.84C127,192,85.29,207.83,87.33,244.44c2.82,14.35,5,14.27-5.26,24-11.5,13.14-9.79,34.85,5.86,44C77.17,333,92.3,357.58,114.18,362.35c-1.79,4.8,5.24,4.64,8.36,6.14,6.39,1,18.65,10.4,24.82,8m0,0c4.17,5.42,42.25,7,52.68,5.43a1.59,1.59,0,0,0,1.46-1.76c-1.31-3.19,39.55-3.56,38.62-7.1M263.9,231.61a1.72,1.72,0,0,1-.4.81h0a30.22,30.22,0,0,0-5,13v0c-.06.42-.12.83-.19,1.25l0-.11c0,.19-.06.37-.08.56h0c-3.86,10.61,3.66,23.32-.85,23.49.13,1.33,1.15,1.55,1.77,2.58.06,6.45-13.94-4.17-15.61-6.64l.06.05c-8.1-8.38-8.84-24.45,2.25-30.61h0a11,11,0,0,0,1.32-.68h0l0,0a8.59,8.59,0,0,0,.76-.59l-.12.1,0,0,0,0c2.93-4.51,7.84-4.53,12.79-5.07h-.24a3.61,3.61,0,0,0,1-.11h0A1.83,1.83,0,0,1,263.9,231.61Zm-5.37,13.79v0Zm-.25,1.74Z" transform="translate(-6.37 -15.27)"/><path class="cls-1" d="M300.78,344.73l-.1.08Z" transform="translate(-6.37 -15.27)"/><path d="M279.74,196.16h0c0-.06,0-.12,0-.17Z" transform="translate(-6.37 -15.27)"/><path d="M362.46,146.65c4.88.36,11.33,3.22,15.59-.18,2.67-2.46.78-6.9-2.34-7.92-2.32-.79-4.76,0-6.92.91-3,1.25-5.9,2.67-9,3.68l.07,0-.12,0h0c-6.16,2.06-12.6,3.22-18.6,5.76A107.91,107.91,0,0,0,317,163.06c-10.15,7.47-20.65,14.75-29,24.31a75.1,75.1,0,0,0-5.2,6.71c1.83-10.75,7.15-20.47,12.25-30a174.13,174.13,0,0,1,21.76-31.26l0,0,.12-.14,0,0c10.45-11.85,22.23-23,36.29-30.38a31.31,31.31,0,0,1,9-2c4.81,0,9.48,1.53,14.22,2.15,3,.45,6.24.88,9.13-.29,2.66-1,4.84-3.82,4.18-6.76-1.27-6.11-8.68-5.12-13.3-4.1a84.87,84.87,0,0,0-22.45,7.54c-13.13,6.45-24.36,16.23-34.37,26.79a182.24,182.24,0,0,0-29.4,41.69c-4.66,9.06-9.34,18.48-10.39,28.74a1.71,1.71,0,0,0,.7,1.89,1.37,1.37,0,0,0,2.63.56,67.73,67.73,0,0,1,6.84-9.31l.08-.1c10.22-11.47,23.24-20,35.6-29l0,0,.15-.1,0,0a93.66,93.66,0,0,1,10.45-5.94l-.06,0,.17-.09-.08,0c6.92-3.72,14.53-5.59,22-7.71a15.29,15.29,0,0,1,3,.09m-81.37,49.82,0-.08c0-.06.05-.11.07-.16l.1-.14h0l.11-.13h0l.13-.12h0l.05,0A1.39,1.39,0,0,0,279.84,196.42Z" transform="translate(-6.37 -15.27)"/><path d="M172,390.68a1.38,1.38,0,0,1-.77-1.78c.33-.85.64-1.71.93-2.57l0,.05,0-.07h0v0h0v0a.36.36,0,0,0,0-.11v0a24.26,24.26,0,0,0,.8-2.89c.06-.34.09-.68.16-1a1.38,1.38,0,0,1,1.66-1,1.37,1.37,0,0,1,.83.62,1.35,1.35,0,0,1,.17,1s0-.07,0-.11c-.1.68-.22,1.35-.38,2s-.46,1.6-.72,2.39v0c-.3.93-.63,1.85-1,2.75a1.35,1.35,0,0,1-1.28.86A1.41,1.41,0,0,1,172,390.68Z" transform="translate(-6.37 -15.27)"/><path d="M190,391.89a1.36,1.36,0,0,1-.76-1.77c.3-.7.55-1.43.79-2.15h0a33.8,33.8,0,0,0,1-4c.05-.3.07-.6.13-.9a1.39,1.39,0,0,1,.5-.9,1.34,1.34,0,0,1,1-.29,1.36,1.36,0,0,1,1.19,1.52c0,.16,0,.32-.06.48-.09.59-.22,1.18-.35,1.77-.22.94-.46,1.88-.74,2.8s-.59,1.8-1,2.67a1.42,1.42,0,0,1-1.28.86A1.24,1.24,0,0,1,190,391.89Z" transform="translate(-6.37 -15.27)"/><path d="M216.08,389.22a1.38,1.38,0,0,1-1-1.66c.07-.32.14-.65.2-1l0-.13a54.8,54.8,0,0,0,.73-5.84v0a1.57,1.57,0,0,1,0-.43,1.38,1.38,0,0,1,1.66-1,1.35,1.35,0,0,1,1,1.15,3.25,3.25,0,0,1,0,.54c0,.46-.08.92-.13,1.39-.09,1-.21,2-.35,3l-.18,1.11c0,.18-.07.36-.1.54l0,.13,0,.19-.21,1a1.37,1.37,0,0,1-1.34,1A1.13,1.13,0,0,1,216.08,389.22Z" transform="translate(-6.37 -15.27)"/><path d="M238.58,387.85A1.39,1.39,0,0,1,238,386c.38-.68.73-1.37,1.07-2.07.51-1.08,1-2.19,1.4-3.31s.86-2.24,1.23-3.39l0,.07s0-.09.05-.13v0c.42-1.3.77-2.63,1.06-4a.4.4,0,0,1,0-.15,1.45,1.45,0,0,1,.46-.73,1.38,1.38,0,0,1,2,.36,1.5,1.5,0,0,1,.15,1.05h0c0,.24-.11.47-.16.71-.11.49-.22,1-.35,1.45-.34,1.3-.77,2.58-1.23,3.84a58,58,0,0,1-2.21,5.42c0-.05,0-.1.07-.16-.37.79-.76,1.57-1.19,2.34a1.36,1.36,0,0,1-1.85.53Z" transform="translate(-6.37 -15.27)"/><path d="M260.46,227.86h.18Z" transform="translate(-6.37 -15.27)"/><path d="M241.65,266.6a.47.47,0,0,0-.06-.09l0-.05Z" transform="translate(-6.37 -15.27)"/><path d="M255.25,228.67h0l.15,0Z" transform="translate(-6.37 -15.27)"/><path d="M286.5,252.19c-1.32-31.29-50.51-31.59-49.82.39S286.85,283.55,286.5,252.19Zm-32.13,20.44c-3.74-1.84-8.09-4.32-10.57-7.72l.11.15a24.88,24.88,0,0,1-2.94-5.41l0,.07c0-.05-.05-.11-.07-.17l0,.07c-5.22-11.68,2.93-25.55,15-28.32h-.1l.18,0-.08,0a39.1,39.1,0,0,1,4.83-.74h-.08C248.35,245.12,249.33,261.93,254.37,272.63Z" transform="translate(-6.37 -15.27)"/><path d="M260.76,230.57Z" transform="translate(-6.37 -15.27)"/><path d="M177,318.36s0-.07,0-.1Z" transform="translate(-6.37 -15.27)"/><path d="M335.19,271.2c-1.53-26-19.43-47.63-39.09-63.25-21.47-20-50.1-29.32-78.89-31.82-31-3.31-63.44.48-90.83,16.07-15.79,8-31.42,17.28-42.81,31.16-18,22.4-29.09,53.45-20.6,81.88,15.4,45.4,48.09,66.78,93.72,75.94,32.15,7.7,65.42.95,96.18-9.48C300.41,356.9,336.65,324,335.19,271.2ZM139.1,374l.07,0-.17-.06.09,0a203.18,203.18,0,0,1-18.92-7.41,128,128,0,0,1-7-13.93c0,.06.05.12.08.17-16.88-33.35-16.65-71.22-12-107.47v0a1.11,1.11,0,0,0,0-.17v0c1.76-14.5,6.06-28.64,11.22-42.24,7.53-4.49,15.34-8.54,23.25-12.34-5.56,14.6-9.14,30-12.49,45.26-1.78,12.9-1.87,26-2.36,39-2.15,34.59,6.69,69,21.58,100.07C141.32,374.62,140.2,374.31,139.1,374Zm54,7.66a147.22,147.22,0,0,1-15.15-.11c-36-56.63-36.11-132.43-9-192.72l0,0c1.83-3.28,3.94-6.4,6-9.52,2.47-.29,4.94-.56,7.42-.78h0a120.89,120.89,0,0,1,16.57-.63c-34.55,51.44-33.27,151.7.67,203.29C197.38,381.37,195.23,381.53,193.07,381.62ZM307.59,222l0,0-.06-.06.05.05ZM226.08,376.6h0Zm106.54-98.07c-1.17,14.61-5,29.46-12.31,42.21l0-.06-.1.15,0,0c-.44.69-.89,1.39-1.35,2.07a33.37,33.37,0,0,1-2.91-2.66l.09.09A31.8,31.8,0,0,1,309.26,309a1.37,1.37,0,0,0-2.73-.08h0v.18h0a31.48,31.48,0,0,0,10.85,15.95c-19.64,28.67-53.07,41.57-85.46,50-.47-.65-.91-1.32-1.33-2l0,0-.09-.16,0,0a174.56,174.56,0,0,1-9.09-17.82h0l0-.08,0,0-.05-.12v0l0-.08h0c-13.24-31.26-19.27-65.9-15.07-99.71v0a300.22,300.22,0,0,1,5.61-32.36h0c3.78-14.79,9.11-29.34,16.85-42.54a138.62,138.62,0,0,1,46.3,15.16c16.52,11.19,32.37,24,44.18,40.22l0-.05a1.71,1.71,0,0,0,.11.14l-.05-.06A68.57,68.57,0,0,1,332.62,278.53Z" transform="translate(-6.37 -15.27)"/><path d="M309.52,220h0Z" transform="translate(-6.37 -15.27)"/><path d="M201.57,175.7c-.41-.51-.82-1-1.24-1.5,0-.07,0-.13,0-.2.11-1.14.16-2.29.18-3.43.06-2.93,0-5.86-.19-8.78s-.45-6-.75-8.95c-.28-2.77-.57-5.54-.91-8.3s-.73-5.81-1.2-8.69q-.78-4.84-1.81-9.64A187.09,187.09,0,0,0,190.74,108c-2-6.23-4.43-12.35-7.06-18.34-2.54-5.8-5.3-11.51-8.21-17.13s-6-11.33-9.5-16.73a125.9,125.9,0,0,0-10.05-13.63C154,39.94,152,37.73,150,35.59s-4.33-4.38-6.66-6.39a59.52,59.52,0,0,0-15.54-9.79,53.29,53.29,0,0,0-8.16-2.76,46.28,46.28,0,0,0-7.69-1.21A44,44,0,0,0,96,16.8a26,26,0,0,0-4.41,1.79,31.82,31.82,0,0,0-4.28,2.71,37.66,37.66,0,0,0-3.43,2.86,24,24,0,0,0-3,3.58c-.44.63-.87,1.27-1.27,1.91a20.2,20.2,0,0,0-1.06,1.86,26.16,26.16,0,0,0-1.79,4.67,40,40,0,0,0-.88,4.72,32,32,0,0,0-.26,4.8,38.65,38.65,0,0,0,1.55,9.35,55.63,55.63,0,0,0,3,8.11c1.19,2.62,2.51,5.18,3.9,7.7.85,1.55,1.75,3.09,2.67,4.62.16.29.33.58.52.9l.07.12c.26.44.52.89.79,1.33,1.07,1.77,2,3.24,3,4.51,1,1.44,2.07,2.81,3.2,4.21A99.91,99.91,0,0,0,101,94c1.16,1.13,2.37,2.25,3.8,3.54,1.25,1.11,2.47,2.17,3.72,3.23l1.64,1.38,2.3,1.94,4.06,3.46.4.34c1.33,1.13,2.21,1.88,3.17,2.67,1.24,1,2.57,2,4.05,3.15,2.6,2,5.27,3.86,8.16,5.83l3.13,2.14.22.15,1.12.76,4.33,2.93,1.61,1.06.48.33.32.21.08.05.28.19.15.1.14.09.41.28c1.41.94,3.06,2,4.63,3.11l.16.12q3.66,2.84,7.21,5.8l.67.56c4.3,3.64,8.47,7.42,12.66,11.18s8.33,7.48,12.45,11.27,8.16,7.59,11.94,11.68l.08.09c1.74,1.89,3.45,3.82,5.06,5.83a1.37,1.37,0,0,0,2.13-1.72Zm-3.78-4.42-.34-.38-.84-.92-.21-.23c-.11-.14-.25-.27-.37-.4s-.27-.29-.41-.44c-.56-.6-1.13-1.2-1.71-1.79-1-1-1.94-2-2.93-2.92-3.88-3.79-7.9-7.44-11.93-11.08s-8.34-7.52-12.53-11.27-8.68-7.64-13.21-11.23c-2.44-1.93-4.91-3.82-7.38-5.7s-4.89-3.69-7.35-5.51q-7.49-5.55-14.92-11.16c-5-3.82-10.06-7.65-14.9-11.7l0,0-.07,0-.06-.06,0,0a110.1,110.1,0,0,1-9.83-9.12h0l-.09-.1a.6.6,0,0,0,.08.08c-1.6-1.74-3.13-3.55-4.56-5.45-.33-.43-.65-.86-1-1.3-.12-.17-.23-.35-.36-.51l-.16-.23a115.87,115.87,0,0,1-7.69-12.79,78.88,78.88,0,0,1-4.27-9.36A51,51,0,0,1,79,51.3a35.72,35.72,0,0,1-.66-4.37,32.09,32.09,0,0,1,0-3.67A36.53,36.53,0,0,1,79,38.71a24,24,0,0,1,.65-2.66,29.76,29.76,0,0,1,1.21-3,24.79,24.79,0,0,1,1.31-2.3,34.11,34.11,0,0,1,2.36-3.22A18.79,18.79,0,0,1,86,25.89a40.64,40.64,0,0,1,3.7-3,26.69,26.69,0,0,1,2.83-1.76,25.1,25.1,0,0,1,6.71-2.39,38.93,38.93,0,0,1,4.29-.64,58.16,58.16,0,0,1,7.11-.05,49.17,49.17,0,0,1,6.05.71h0l.11,0h-.08a48.59,48.59,0,0,1,5.46,1.41,56.55,56.55,0,0,1,6.28,2.49,63.9,63.9,0,0,1,6.48,3.59,63.36,63.36,0,0,1,5.92,4.39,102.14,102.14,0,0,1,9,8.77,133.2,133.2,0,0,1,10.67,13.15q1.46,2.07,2.82,4.2c3.42,5.33,6.5,10.88,9.42,16.5Q176,79.52,179,85.88q4.14,8.91,7.51,18.16c.56,1.57,1.11,3.14,1.63,4.73a183.45,183.45,0,0,1,4.89,18c1.11,5.18,2,10.39,2.66,15.64q.54,4.19,1,8.37c.29,2.75.57,5.49.78,8.24h0c.19,2.38.33,4.77.38,7.15C197.83,167.88,197.84,169.58,197.79,171.28Z" transform="translate(-6.37 -15.27)"/><path d="M195.16,176.68h0l0-.16a.32.32,0,0,1,0,.09Z" transform="translate(-6.37 -15.27)"/><path d="M190.54,177.82a1.39,1.39,0,0,0-.29-1.91c-.93-.73-1.87-1.42-2.84-2.08a60.23,60.23,0,0,0-15.36-7.69c-6.3-2.08-13-2.73-19.55-3.2-3.11-.23-6.22-.4-9.34-.56-3.47-.17-6.94-.29-10.41-.48s-6.83-.41-10.24-.71q-4.87-.42-9.72-1-11.45-1.46-22.8-3.59-5-1-10-2.06c-7.21-1.57-14.41-3.24-21.44-5.51-3.06-1-6.1-2.07-9.09-3.27s-5.69-2.34-8.48-3.65l.08,0-.11-.06,0,0h0c-2.91-1.4-5.75-2.95-8.57-4.55-2.47-1.4-4.91-2.86-7.3-4.39a74.13,74.13,0,0,1-7.1-5.23,43.55,43.55,0,0,1-3.63-3.43c-.62-.69-1.2-1.41-1.75-2.16s-1.13-1.74-1.63-2.65A28.08,28.08,0,0,1,9.77,117c-.17-.52-.33-1-.46-1.58-.07-.38-.13-.76-.17-1.15a12.13,12.13,0,0,1,0-1.35c0-.42.09-.84.16-1.25s.25-1,.41-1.53a24,24,0,0,1,1-2.47,13.11,13.11,0,0,1,.74-1.32c.4-.61.83-1.2,1.29-1.78A45.44,45.44,0,0,1,16.09,101a43.44,43.44,0,0,1,3.67-3,35,35,0,0,1,3.56-2.19,34.77,34.77,0,0,1,3.37-1.48,27.48,27.48,0,0,1,2.95-.83,32.69,32.69,0,0,1,4-.58,46.63,46.63,0,0,1,5.67,0,86.52,86.52,0,0,1,10.86,1.42h0l.11,0h0l1.46.29c3.15.65,6.27,1.47,9.38,2.34s6.19,1.82,9.26,2.82h0c3.9,1.27,7.79,2.6,11.63,4.06,3.33,1.26,6.64,2.57,9.94,3.88s6.82,2.79,10.15,4.37c5.42,2.57,10.76,5.31,16.07,8.1,2.92,1.53,5.84,3.08,8.72,4.7s5.77,3.36,8.58,5.16l.08.05.12.08,0,0,.06,0,.95.62,1.77,1.17q3.67,2.47,7.21,5.15c5.31,4,10.51,8.16,15.7,12.34l7.53,6.09c2.77,2.24,5.56,4.49,8.3,6.78,1.38,1.17,2.74,2.35,4.08,3.56,2.44,2.2,4.79,4.5,7.14,6.78l2.52,2.43c.52.51,1.06,1,1.56,1.53l.05.06a1.19,1.19,0,0,0,1.26.79,1.31,1.31,0,0,0,1.37-1,1.6,1.6,0,0,0-.17-1.07,2.67,2.67,0,0,0-.43-.57c-.53-.57-1.11-1.11-1.67-1.66-2.06-2-4.1-4-6.17-6q-3.33-3.19-6.86-6.2c-2.74-2.33-5.55-4.59-8.35-6.86L164,148.19c-2.61-2.11-5.21-4.21-7.84-6.29-5.45-4.29-10.91-8.57-16.68-12.42-.72-.48-1.45-.95-2.18-1.42l-.11-.07,0,0,0,0-2.27-1.44q-4.25-2.64-8.64-5c-5.69-3.13-11.46-6.11-17.28-9-3.41-1.7-6.83-3.39-10.34-4.89s-6.8-2.78-10.22-4.12c-3.27-1.28-6.55-2.55-9.87-3.72s-6.56-2.26-9.86-3.31a153,153,0,0,0-19-4.91,83.93,83.93,0,0,0-10.37-1.29,45.81,45.81,0,0,0-5.37,0,32.22,32.22,0,0,0-5.94.93,29.72,29.72,0,0,0-9.72,4.63,38.68,38.68,0,0,0-7.86,7.31,20.43,20.43,0,0,0-1.61,2.32,17.13,17.13,0,0,0-1.27,2.71,14.06,14.06,0,0,0-1.15,5.57,13.05,13.05,0,0,0,.4,2.84,19.23,19.23,0,0,0,1,2.73,25.81,25.81,0,0,0,2.65,4.69c.51.7,1,1.37,1.63,2,.1.14.2.28.31.41q1,1.26,2,2.46c.76.89,1.55,1.75,2.38,2.56s1.67,1.58,2.54,2.32,1.94,1.56,2.95,2.28,1.93,1.33,2.93,1.95h0l.05,0,0,0h0c.08.06.16.1.24.15l.37.23.82.5,1.49.88c1,.6,2.08,1.19,3.14,1.76,1.81,1,3.65,1.88,5.5,2.75.22.13.43.27.65.39a63.72,63.72,0,0,0,5.69,2.94c1,.46,2,.9,3.08,1.3s2,.78,3.07,1.14l.11,0h0c1.77.76,3.57,1.45,5.37,2.14s3.63,1.33,5.48,1.9l0,0,.15.05h0c1.4.43,2.82.83,4.25,1.18.92.23,1.83.44,2.75.65l2.77.64c.9.2,1.81.38,2.72.55.45.09.9.17,1.35.23l.11,0c1.39.34,2.8.66,4.35,1s3.66.79,6.08,1.27l.13.05,6,1.16,3,.57.33.06.44.09.67.13,1.14.22,1.36.27c2.5.46,4.91.88,7.16,1.24,1.28.19,2.56.38,3.64.52l3.45.47c2.83.33,5.21.57,7.26.74,3.24.22,5.71.36,7.77.44,2.62.06,4.21.08,5.3.08h2c1.9,0,3.81-.07,5.77-.13h.56c1.63-.06,3.62-.11,6.1-.12h2a127.61,127.61,0,0,1,16.09,1.72,52.76,52.76,0,0,1,6.07,1.51,58.59,58.59,0,0,1,6.39,2.54,61.19,61.19,0,0,1,6.73,3.72l-.08,0,.09,0h0c1.55,1,3.06,1.86,4.5,3m-53.17-47.79h0Z" transform="translate(-6.37 -15.27)"/><path d="M195.2,176.37h0v.14h0v0h0a.61.61,0,0,0,0-.14v0Z" transform="translate(-6.37 -15.27)"/></svg>