<svg id="Ebene_1" data-name="Ebene 1" xmlns="http://www.w3.org/2000/svg" viewBox="0 0 591.55 591.88"><defs><style>.cls-1{fill:none;stroke:#000;stroke-linecap:round;stroke-miterlimit:10;stroke-width:24px;}</style></defs><path d="M499,370.24l-17.52-3.5c-3.16-.7-6-3.86-6-10.87v-102c0-32.94-22.08-53.26-51.51-53.26-25.58,0-42.4,10.51-59.22,27.33H364a47.84,47.84,0,0,0-22.83-22.3l-1.65-.74-.94-.39a51.49,51.49,0,0,0-6.4-2.09h0a57.84,57.84,0,0,0-10.8-1.68h-.22c-1.17-.07-2.34-.11-3.54-.11h-.21c-25.46.06-42.23,10.56-59,27.33h-.7c-8.76-17.52-25.93-27.33-46.6-27.33-24.53,0-42.41,10.16-57.82,25.93h-1.41l-1.75-18.92c-.35-3.51-2.1-6-6-5.26l-43.1,7c-3.15.35-4.9,2.1-4.9,5.25v3.86c0,2.45,1,4.55,4.55,5.25l18.92,3.16c5.61,1.05,7.36,7,7.36,11.91v117c0,7-2.8,10.17-6,10.87l-17.52,3.5c-3.16.7-4.56,2.81-4.56,5.26V379c0,3.16,1.75,4.91,4.91,4.91h75.34c3.15,0,4.9-1.75,4.9-4.91v-3.5c0-2.45-1.4-4.56-4.55-5.26l-17.52-3.5c-3.16-.7-6-3.86-6-10.87V258.81c0-19.28,17.17-34.34,39.95-34.34,24.18,0,37.49,15.77,37.49,42v89.35c0,7-2.8,10.17-5.95,10.87l-17.53,3.5c-3.15.7-4.55,2.81-4.55,5.26V379c0,3.16,1.75,4.91,4.9,4.91h75.35c3.15,0,4.9-1.75,4.9-4.91v-3.5c0-2.45-1.4-4.56-4.55-5.26l-17.52-3.5c-3.16-.7-6-3.86-6-10.87V258.81c0-19.25,17.12-34.3,39.84-34.34,24.12,0,37.39,15.8,37.39,42v89.35c0,7-2.8,10.17-6,10.87l-17.52,3.5c-3.16.7-4.56,2.81-4.56,5.26V379c0,3.16,1.75,4.91,4.91,4.91h75.54c3.16,0,4.91-1.75,4.91-4.91v-3.5c0-2.45-1.4-4.56-4.56-5.26l-17.52-3.5c-3.15-.7-6-3.86-6-10.87V255.19c2-17.51,18.41-30.72,39.74-30.72,24.18,0,37.49,15.77,37.49,42v89.35c0,7-2.8,10.17-5.95,10.87l-17.52,3.5c-3.16.7-4.56,2.81-4.56,5.26V379c0,3.16,1.75,4.91,4.91,4.91H498.6c3.15,0,4.9-1.75,4.9-4.91v-3.5C503.5,373.05,502.1,370.94,499,370.24Z" transform="translate(-3.55 -3)"/><path class="cls-1" d="M500,499.8a282.9,282.9,0,0,0,83.09-196.72c0-1.31,0-2.62,0-3.93V298c0-1.1,0-2.21,0-3.32" transform="translate(-3.55 -3)"/><path class="cls-1" d="M154.92,54.51c134.93-79.73,308.94-35,388.67,99.94s35,308.93-99.93,388.66" transform="translate(-3.55 -3)"/><path class="cls-1" d="M499.38,500.42l.61-.62" transform="translate(-3.55 -3)"/><path class="cls-1" d="M73.7,127c-95,124.62-71.07,302.68,53.55,397.72S429.93,595.8,525,471.19" transform="translate(-3.55 -3)"/></svg>